<?xml version="1.0" encoding="UTF-8"?>
<svg id="_图层_2" data-name="图层 2" xmlns="http://www.w3.org/2000/svg" viewBox="0 0 372.05 80.97">
  <g id="logo">
    <g>
      <path d="M92.73,30.76c2.5,0,3.08-.33,3.93-.92.85-.59,2.84-2.28,3.35-2.5,1.5-.65,4.75-1.2,6.35-1.31,1.59-.1,2.13-1.17,2.36-1.73.23-.57.48-1.46.17-1.7-.43-.34-1.7-.82-3.67-.82-1.01,0-2.23.02-3.5.13-.94-1.18-2.56-3.41-3.01-5.19-.33-1.34-.52-2.87-.26-3,.62-.03,5.04,2.06,6.17,2.33,1.13.27,2.78.48,4.04-.62,1.27-1.1.62-2.71.45-3.22-.17-.51-4.08-3.15-5.76-3.05-1.68.1-3.39,1.03-4.21,1.85s-.99,1.92-.99,1.92h-.49s-1.27-2.36-2.5-2.36c-1.54,0-2.95,3.28-2.95,6.89,0,3.26.84,3.67,3.31,6.24-1.38.68-2.81,1.48-4.44,2.22,0,0-3.19,2-3.12,2.88.08.87,2.25,1.98,4.75,1.98Z"/>
      <path d="M161.09,30.3c.52,0,2.03,0,2.79-.3,2.16-.86,3.95-1.89,4.98-2.39,1.41-.69,4.06-1.21,5.28-1.28,1.22-.07,2.4-.17,2.67-.42.27-.26.74-.8.79-.89.16-.26.17-.73.17-1.2,0-1.23-.88-1.91-1-1.93-.44-.07-3.75.1-5.54-.08v-4.02c.21-.68.51-1.57.75-2.03.81-.96,1.59-1.89,1.82-2.17,1-1.21,1.05-2.09.39-2.66-.67-.57-1.11-.69-1.72-.64-.62.05-1.65.55-2.47.93-1.83.83-3.38,1.39-5.05,1.9-1.67.51-4.03,1.61-4.29,1.73-.42.21-.48.66-.42,1.27.05.62,1.01,2.06,3.55,2.06.69,0,1.64,0,2.58.01v3.07c-.04.6-.19,1.89-.34,2.28-.15.37-1.2.94-1.76,1.22-.71.13-4.19.22-4.69.27-.21.02-.81.07-.94.12-.26.09-.59.83-.59,1.85,0,1.99,1.9,3.31,3.04,3.31Z"/>
      <path d="M295.87,13.83c1.08-.29,1.4-1.15,1.39-1.76-.02-.62-.93-1.82-1.3-2.28-.38-.46-.87-1.01-1.22-1.18-.34-.17-1.3-.26-1.46-.08-.22.24-.39.62-.44.85-.05.23-.12,1.04-.11,1.47.02.43.45,1.8.79,2.23.34.43,1.27,1.05,2.35.75Z"/>
      <path d="M272.59,31.56c1.41-.59,3.95-1.9,5.84-3.13,1.89-1.23,3.41-2.49,3.41-2.49,0,0,.18,1.62.46,2.39.28.77,1.41,2.31,1.67,2.54.26.23.56.54,1.11.54s1.16-.29,1.53-.86c.38-.56.43-.77.43-2.62,0-2.96-.18-4.9-.32-6.86.44.84,1.38,2.6,1.55,2.84.17.24,1.39,2.36,1.99,2.84.6.48,1.87.98,2.47.41.6-.57,1.25-1.71,1.25-2.33s-.15-1.17-.45-1.7c-.29-.53-1.68-1.78-1.97-2.04-.29-.26-1.13-.79-1.56-.98-.43-.19-.99-.48-1.8-.5-.62-.01-1.09.11-1.56.25-.05-.92-.09-1.88-.09-2.99,0-3.9.35-5.17.56-5.36.2-.19,2.55-.1,2.81-.07.27.04.51-.15.59-.18.09-.03.2-.64.2-.85s-.05-.68-.19-.77c-.14-.09-.39-.24-.56-.29-.17-.05-.6-.17-.96-.17h-.74c-.1,0-.5-.36-.5-1.11s.09-3.37.09-3.37c0,0,.31-.45.46-.68.24-.38.24-1.1.19-1.34-.05-.24-.35-.41-.69-.4-.46.01-.69-.03-1.03.59-.33.62-1.49,2.75-1.7,3.91-.21,1.16-.72,3.21-1.26,3.98-.54.77-2.57,2.49-5.86,3.67-3.29,1.18-5.5,2.9-5.63,3.16-.13.26,0,.67,0,.67,0,0,2.13,1.21,3.78,1.21s5.78-2.11,5.78-2.11v1.77s-1.63,2.46-2.99,3.9c-1.36,1.44-3.07,2.96-4.82,4.12-1.75,1.16-4.05,3.14-4.49,3.96-.44.82-.65,1.2-.5,1.43.15.23,2.08-.41,3.49-1Z"/>
      <path d="M305.67,32.29c.12,0,1.97.12,2.69,0s3.14-.75,4.06-1.03c.92-.27,3.15-1.73,3.67-2.16.59-.49,2.03-2.26,2.49-3.67.4-1.22.99-3.57,1.19-5.5.01,0,.03,0,.03,0,0,0,2.28-1.89,3.77-2.64,1.49-.75,2.52-1.73,2.67-2,.15-.27.22-1.3,0-1.53-.22-.22-1.05-.12-1.05-.12,0,0-.8.27-1.32.77s-1.86,1.55-2.11,1.73c-.25.18-.53.21-.79,0-.26-.21-.26-.41-.26-.88,0,0-.05-1.46.31-2.56.37-1.14,1.01-1.77,1.08-1.92.07-.15.74-.89.87-1.11.14-.22.41-.55.46-.84.05-.29-.33-1.05-.74-1.03-.68.03-1.08.03-1.51.7-.43.67-.94,1.87-1.22,3.13-.27,1.27-.5,2.11-1.04,3.91-.55,1.8-1.17,2.81-1.17,2.81,0,0-3.2,1.46-3.67,1.66-.46.21-1.01.48-1.51.62-.5.14-2.66,1.25-2.86,1.3-.21.05-.33.17-.29.38.03.21.82.7,1.01.87.19.17,1.22.15,1.54.12.33-.03,2.87-1.58,3.63-1.99.48-.26.91-.4,1.21-.17.18.14-.14,1.58-.39,2.39-.34,1.28-1.11,2.11-2.45,3.31-1.34,1.2-3.43,2.59-5.64,3.61-.91.42-2.71.98-2.88,1.25-.17.27.05.59.17.6Z"/>
      <path d="M321,23.56c-.38-.26-.98-.95-1.17-.72-.25.31.21,1.78,1.05,3,.84,1.22,3.03,2.9,4.16,3.65,1.13.75,4.52,2,6.13,2s3.13-1.73,3.45-2.29c0,0,.2-.69-.05-.91-.26-.22-.56-.31-.99-.31s-4.97-.49-5.86-.61c-.89-.12-3.12-1.28-3.82-1.81-.7-.53-2.53-1.75-2.91-2Z"/>
      <path d="M131.75,9.91s.72-.28,1.36-.65c.65-.37,1.21-.64,2.14-1.43.71-.29,1.64-.65,2.23-.8h1.3s.31.05.51.41c.21.36-1.22,1.27-1.22,1.27,0,0,.05.3.33.24.27-.06,2.11-.98,3.19-1.7,1.08-.72,1.06-1.32,1.06-1.47s-.7-.43-1.2-.43-2.42.57-3.46.94c-.48.17-1.13.39-1.71.59,1.34-1.32,1.79-2.18,2.06-2.47.28-.31.31-.82.1-.96-.21-.14-.87,0-.87,0-.35.17-1.4.8-2.9,2.35-.83.86-1.89,2.42-3.18,3.48-.2.22.06.71.24.65Z"/>
      <path d="M139.31,25.5v1.7c0,.84-.55,1.59-1.08,2.02-.53.43-1.03.48-1.33.48-.16,0-.44.22-.42.51.02.29.48.91.69,1.05.62.4,2.8-.8,4.44-3.19.9-1.3,1.14-2.28,1.23-3.53.18-.07.35-.14.51-.19.89-.3,1.73-.31,2-.51.27-.21,0-.37,0-.37-.6-.14-.86-.26-2.24-.09-.07,0-.15.03-.23.04.04-1.33.04-2.58.03-3.75.72-.28,3.14-1.21,4.07-1.47,1.1-.31,1.01-.41,1.01-.41,0,0,.05-.3-.49-.43-.55-.13-1.18.08-2.29.28-.74.14-1.48.17-2.3.23,0-.03,0-.07,0-.1,0,0,.08-1.77.36-2.89.18-.73.43-1.49.43-2.47,0-.91,0-1.2-.32-1.54-.53-.56-2.02-.18-3.24.4-1.22.59-2.53,1.7-2.53,1.7,0,.37.35.77.59.85.32.11,1.1-.58,1.88-.97.78-.38,1.03-.66,1.74-.74,0,0,.26-.05.15.69-.1.74-.66,2.15-1.16,3.57-.25.73-.45,1.27-.59,1.87l-1.76.31c-.15-.53-.22-1.25-.22-1.51,0-.36.05-1.15.09-1.42.03-.27.14-.91-.74-.91-.37,0-.67.05-.94.1,0-.15,0-.3,0-.46.03-1.2-.18-1.9-.72-2.05,0,0-1.07.2-1.85,1.6-.78,1.4-1.58,3.32-2.43,5.09-.38.8-.89,1.69-1.35,2.6-.78.36-2.41,1.12-3.83,1.84-1.62.82-2.15,1-2.51.82v-4.03c.27-.48.84-1.49,1.26-2.1.57-.82,1.79-1.92,1.79-2.88s-.58-1.57-1.16-2.35c-.58-.78-.92-1.11-.91-1.62l1.53-2h0c.18-.16.36-.32.49-.46.46-.49.8-1.14.82-1.48.03-.33-.42-.71-.62-.86-.19-.15-.98-.3-1.34-.28-.36.01-1.17.03-1.26.19-.09.16.06.32.37.53.31.21.55,1.6.44,3.12l-.98,1.25s-.45.53-.77,1.08c-.32.55-.55.86-.55,1.76s.31,1.9.31,3.42-.03,8.45-.03,8.45c-.06,2.27.24,4.13,1.81,5.01,0,0,.63.1.85-.58.22-.68.2-1.16.2-1.61s-.09-1.42-.11-1.63h-.52c-.16.06-.27.16-.52.22-.41.09-.92-.81-1.08-1.76.97-.5,3.85-1.93,5.77-2.88-.32.8-.54,1.59-.54,2.34,0,2.16,2.09,2.29,2.98,2.29.37,0,.58-.04,1.43-.4.85-.36,2.61-.93,3.34-1.17.37-.12,1.38-.23,2.3-.31ZM134.69,16.57c.62-.71,1.4-.71,1.77-1-.05.84-.21,3.15-.32,3.48-.13.38-.5.72-.81,1.06-.73.05-1.81.13-2.67.24.46-1.52,1.2-2.82,2.03-3.78ZM133.38,25.61c-1.42,0-1.46-1.57-1.46-1.57,0,0-.08-.25.05-1.91.55-.2,1.69-.57,2.88-.7.05.76.27,1.79.48,1.74.27-.07,1.15-.17,2.17-1.42.38-.46.63-.94.82-1.36.56-.16,1.15-.31,1.73-.42,0,.1,0,.2,0,.31,0,1.43-.19,3.33-.26,4-.88.3-1.72.6-2.3.81-1.39.51-4.1.51-4.1.51Z"/>
      <path d="M201.04,13.63c.76-.37.96-.63.96-1.44s-.62-.86-.9-.99c-.21-.1-.64-.07-.72-.05-.05.02-.45.35-.86.69v-2.44c.29-.49.71-1.21,1.03-1.9.56-1.18.75-1.6.76-2.41,0-.8-.23-.99-.51-.99l-.44.08s-3.3,3.35-4.33,4.52c-1.03,1.17-3.82,4.6-3.82,4.6,0,0,.1.45.3.36.19-.09,2.76-1.76,3.26-2.16.36-.29,1.37-.74,1.9-.97v2.72c-.13.16-.45.52-1.21,1.21-1.02.95-3.37,2.59-3.88,2.9-.41.25-2.08,1.08-2.72,1.16-.64.08-1.34.22-1.34.22-.13.35-.27.58-.34.82-.07.24-.02.39,0,.84.02.45.46.68.99,1.01.52.33,1.77-.02,2.38-.44.86-.59,2.95-2.44,3.91-3.3.36-.32,1.17-1.03,1.53-1.35-.11.77-.5,1.88-.84,2.75-.46,1.18-1.01,1.93-1.45,2.52-.45.59-3.01,3.69-3.62,4.41-.62.72-1.47,1.7-1.68,1.98-.21.27-.95,1.1-.95,1.1,0,0,.05.47.55.45.5-.03,1.96-.8,2.98-1.5,1.02-.7,2.44-2.02,3.63-2.07.32,1.2.62,2.91.79,3.49.32,1.13,1.53,2.06,1.53,2.06l.76.14s.09.01.28-.84c.19-.85.16-1.62.16-2.06v-6.37l1.8-.15s.6-.21.78-.5c.18-.28.22-.59.18-.74-.13-.55-.37-.97-1.13-1.19-.49-.14-1.19-.25-1.63-.3v-4.72c.43-.3,1.35-.91,1.92-1.18Z"/>
      <path d="M206.64,15.13c.33,0,.65-.24,1.11-.62.53-.46.77-1.12.77-1.12v-.15s1.17,0,1.17,0c1.25,0,2.72-.2,3.26-.45.54-.24.82-.48.9-.7.36-1,.8-2.08.8-2.08,0,0,1.01-1.89,1.72-2.51.71-.62.35-1.13.1-1.36-.24-.23-.76-.51-2.02-.44-1.26.08-1.84.15-3.15.73l-1.22.37h-1.74c-.12-.15-.32-.27-.66-.42h-.39s-.5.44-1.22,1.58c-.72,1.15-1.37,2.95-1.37,4.15s.18,1.67.73,2.23c.55.55.87.79,1.21.79ZM208.51,9.79c1.29-.83,3.49-2.19,4.44-2.42,0,0,.33-.03.45,0,.16.04.15.28.07.6-.08.32-1.35,1.71-2,2.26-.66.55-1.69,1.36-2.64,1.91h-.32v-2.35Z"/>
      <path d="M210.91,28.71c1.37-.53,2.9-1.01,2.9-1.01h3.69c.63,0,.86-.38,1.06-.94.21-.56-.07-1.15-.39-1.61-.33-.46-.87-.6-1.85-.89-.42-.13-1.27-.22-2.09-.29v-.71c.44-.65.89-1.46,1.17-2.2.32-.87-1.28-1.74-2.6-2.16v-1.63c.15-.07.32-.25.61-.74.1-.17.2-.61.25-.79.14-.49.14-1.07.14-1.52,0-.62-.6-.68-1.22-.64-.62.04-2.65,1.14-3.85,1.94s-2.77,1.79-2.99,2.75c-.08.33.71.46.85.47.14.01,1.38-.64,1.9-.93.22-.12.55-.19.81-.22v2.33c-.71.62-1.37,1.34-1.8,1.88-.83,1.03-1.67,1.64-1.67,2.34,0,.23.68.73,1.43,1.2v.69c-.82.18-1.59.35-2.54.74-1.43.59-1.94,1.26-1.94,1.94,0,.31.22,1.02.84,1.75.57.68.99.65,1.59.65s4.32-1.87,5.69-2.4Z"/>
      <path d="M244.15,14.23c-.1-.21-.51.17-1.71.77-1.2.6-2.64,1.35-4.11,2.28-1.47.93-1.85,1.18-1.63,1.51.24.35,1.83-.26,2.54-.48.71-.22,2.82-2.28,3.61-2.83.79-.55,1.4-1.05,1.3-1.25Z"/>
      <path d="M231.11,25.31c-1.52,1.84-3.1,4.32-3.1,5.49,0,.67.29,1.3.84,1.66,0,0,.39.02.57-.27.18-.29.43-1.01.92-2.38.69-1.94,1.64-3.98,2.29-5.03.52-.83,1.29-1.52,1.7-1.86-.03,1.58-.03,3.11,0,4.48.08,3.78,1.02,6.03,1.02,6.03.18.21.65.26.8.15.57-.53,1.52-1.61,1.42-2.48-.1-.86-.61-2.15-.94-3.07-.46-1.27-.56-1.77-.57-2.25-.09-5.25.01-9.67.2-12.64.7-.43,1.61-.96,1.98-1.19.51-.31.93-.93.98-1.22.05-.29-.29-.33-.48-.34-.19-.02-.86.39-1.13.57-.23.15-.98.43-1.2.51.26-1.96.68-2.5.68-2.5.72-1.8,1.15-2.24,1.28-2.79.14-.55.14-.99,0-1.16-.14-.17-.44-.43-.92-.82,0,0-.51-.15-.68,0-.17.15-1.02,3.81-1.68,8.14-.78.51-1.71,1.11-2.09,1.29-.72.34-2.09.92-2.78,1.26-.98.49-.84.78-.74.98.13.23.9.37,1.1.26.11-.06,1.47-.94,1.83-1.2.26-.18,1.6-.69,2.47-1.05-.28,2.38-.46,5.23-.54,8.01-.59.56-2.06,1.99-3.25,3.43Z"/>
      <path d="M248.19,28.51s.06.02.09.02c1.2.27,5.46,2.57,8.5,2.57s4.47-2.24,4.63-2.62c.13-.31,0-.43-.14-.53-.22-.17-.29-.22-1.15-.26-.86-.03-5.88-.02-7.21.02-.77.02-1.93-.43-2.84-.88.5-.67.91-1.46,1.35-2.47.67-1.53.92-2.06.92-3.52,0-1.05-.26-1.59-.65-2.07-.39-.48-.58-.55-1.38-.94-.8-.39-1.34-1.32-1.4-1.66-.06-.35.2-3.36.42-4,.11-.33.22-.64.31-.96.48-.25,1.55-.79,2.41-1.14,1.15-.46,1.63-.45,1.92-.46.29-.02-.08-.68-.39-.82-.21-.1-.56-.22-1.32.2-.31.17-1.4.7-2.44,1.28.14-1.65.19-2.79.41-4.29.23-1.51,1.47-4.59,1.55-4.86.11-.43.17-.87-.12-1.1,0,0-.74.12-.86.29-.12.17-.91.93-1.42,2.62-.39,1.28-1.01,5.02-1.2,5.87-.15.69-.65,2.25-.92,3.05-.66.43-1.19.81-1.17.94.04.21.38.23.84.16-.11.56-.21,1.44-.21,2.95,0,2.33.13,2.39,1.06,3.22.7.62,1.57,1.27,1.68,1.54.24.57.27,1.25-.22,2.8-.34,1.07-1.13,2.03-1.63,2.55-.52-.18-1.93-.71-3.03-1.39-1.37-.84-2.26-1.46-3.99-1.27-.29.03-.34.38,0,.55.34.17,1.3.86,2.48,1.7.64.46,1.77,1.2,2.86,1.84-.22.16-.91.59-1.97.67-1.23.1-3.61.22-3.46.63.15.41,1.56,1.34,2.81,1.22,1.1-.11,3.41-.62,4.88-1.44Z"/>
      <path d="M363.5,25.6c.77-.1,1.5-.19,1.83-.25.68-.12.83-.48.9-.67.11-.29.17-.51,0-.74-.28-.36-.78-.99-1.08-.99-.39,0-1.08.17-2.07.39-.72-1.39-2.68-3.38-3.09-3.74.2-.37.86-1.49,1.79-2.31,1.13-.99,1.24-1.55,1.23-1.88,0-.32-.82-.69-1.46-.77-.64-.08-2.48.91-3.62,1.52-1.14.6-3.19,1.81-4.14,2.59-.95.78-1.26,1.31-1.26,2.07,0,.51.84.34,1.35.23.31-.06,1.39-1.26,2.61-2.44,1.22-1.18,3.02-2.24,3.82-2.24,0,0,.47.19.4.57-.03.15-.84,1.58-1.28,2.56l-.23-.02c-.18.06-.15.86.22,2.03.35,1.09.38,1.21.79,2.48-.63.16-1.17.3-1.67.42-1.75.42-3.85.59-4.32.75-1.39.49-1.78.72-2.58,1.3-.73.53-1.1.92-.92,1.16.17.24.37.63,1.48.63s2.52-.39,4.04-.93c1.08-.38,2.88-.81,4.2-1.12,0,.21.02.43.02.67.03,1.29-.5,2.48-.97,3.18-.48.69-1.06,1.32-1.33,1.37-.57.11-1.22,0-1.29.02-.13.03-.15.25-.18.46-.03.21.49,1.59,1.08,1.72.57.13,1.58-.15,2.49-.97.91-.81,1.83-1.8,2.56-3.07.63-1.1.74-2.67.67-3.99Z"/>
      <path d="M346.59,22.95c.42.14.68-.07,1.1-.55.34-.39.89-3.82,1.84-5.6.37-.69,5.61-2.39,8.63-3.3,3.08-.93,8.15-1.92,9.78-1.81,0,0,.26.15.19.57l-.18.63c.15.15.82.18,1.46-.12.63-.31.96-.86.96-1.09,0-.47-1.11-.96-2.36-1.07-.83-.07-3.28.47-8.86,1.97-5.58,1.51-7.2,1.98-9.8,3.3-2.6,1.32-3.97,3.34-3.97,4.94,0,.65.27,1.82,1.22,2.12Z"/>
      <path d="M354.5,13.4c.33-.21.63-.55.7-.92.08-.45.29-1.03-.27-1.38-.4-.25-.96-.75-1.26-1.07-.26-.27-.74-1.1-1.14-1.1-.24,0-.66.86-.64,1.79.01.75.11,1.34.64,1.86.57.56,1.61,1.04,1.97.82Z"/>
      <path d="M357.77,9.3c.54.17,1.45-.24,1.65-.37.21-.13.32-.31.32-.52s-.81-1.18-1.49-1.67c-.63-.45-1.22-.59-1.59-.39-.46.25-.33.89-.26,1.43.08.54.83,1.35,1.37,1.52Z"/>
      <path d="M363.48,8.38c.83-1.35,1.52-3.64,1.51-4.14-.01-.5.05-1.19-.3-1.23-.23-.03-.66.95-1.1,1.8-.41.79-1.33,2.68-1.89,3.73-.49.92-1.79,2.95-1.34,2.73.45-.22,2.42-1.76,3.12-2.89Z"/>
      <path d="M98.27,49.49c-.84-.46-1.97-.85-3.4-1.15-.94-.23-1.68-.44-2.2-.64-.53-.2-.89-.45-1.09-.73-.2-.28-.3-.64-.3-1.08,0-.63.24-1.14.73-1.52.49-.38,1.15-.57,1.99-.57.68,0,1.25.12,1.72.37.47.25.85.59,1.12,1.02.28.44.45.95.53,1.53l2.95-.14c-.12-1.03-.44-1.95-.95-2.74-.51-.79-1.21-1.42-2.09-1.88-.89-.46-1.97-.69-3.24-.69-1.2,0-2.23.2-3.08.6-.86.4-1.52.95-1.98,1.67s-.7,1.53-.7,2.46c0,.87.18,1.59.54,2.17.36.58.94,1.06,1.73,1.44.79.38,1.85.72,3.17,1.02,1.09.26,1.92.51,2.48.78.55.26.93.55,1.12.88.19.32.29.69.29,1.09,0,.45-.12.83-.35,1.14-.23.31-.57.54-1.01.7-.44.16-.98.24-1.61.24-.74,0-1.36-.12-1.88-.37s-.93-.61-1.24-1.09c-.31-.48-.51-1.06-.6-1.75l-2.97.18c.09,1.11.41,2.08.96,2.91.55.83,1.3,1.48,2.26,1.95.96.46,2.1.7,3.42.7,1.22,0,2.27-.19,3.17-.57.9-.38,1.6-.93,2.09-1.64.5-.71.74-1.56.74-2.53,0-.79-.18-1.5-.54-2.11-.36-.62-.96-1.16-1.8-1.62Z"/>
      <polygon points="113.24 48.29 106.51 48.29 106.51 41.63 103.58 41.63 103.58 57.61 106.51 57.61 106.51 50.84 113.24 50.84 113.24 57.61 116.16 57.61 116.16 41.63 113.24 41.63 113.24 48.29"/>
      <path d="M123.7,41.63l-5.76,15.98h3.06l1.33-3.78h6.32l1.33,3.78h3.06l-5.76-15.98h-3.58ZM123.18,51.33l2.32-6.75,2.29,6.75h-4.61Z"/>
      <polygon points="147.73 57.61 147.73 41.63 144.8 41.63 144.8 53.65 137.92 41.63 134.5 41.63 134.5 57.61 137.42 57.61 137.42 45.93 144.22 57.61 147.73 57.61"/>
      <path d="M153.29,56.9c1.09.71,2.4,1.07,3.92,1.07.87,0,1.68-.15,2.42-.46s1.36-.73,1.87-1.28c.29-.32.52-.67.7-1.04l.12,2.43h1.89v-8.24h-6.8v2.27h3.94c-.03.71-.21,1.35-.54,1.92-.33.58-.78,1.03-1.35,1.36-.57.33-1.25.5-2.05.5-1.02,0-1.86-.25-2.53-.75-.67-.5-1.16-1.19-1.47-2.06-.31-.87-.47-1.86-.47-2.97s.16-2.06.48-2.94c.32-.88.81-1.58,1.46-2.1.65-.52,1.49-.79,2.51-.79,1.16,0,2.02.28,2.6.84.58.56.95,1.32,1.11,2.26l3.06-.16c-.22-1.08-.62-2.03-1.17-2.86-.56-.82-1.29-1.47-2.22-1.94-.92-.46-2.06-.7-3.41-.7-1.56,0-2.9.36-4.01,1.09-1.11.73-1.96,1.72-2.55,2.98-.59,1.26-.89,2.69-.89,4.3s.29,3.07.87,4.32c.58,1.25,1.41,2.22,2.51,2.94Z"/>
      <polygon points="176.51 57.61 179.43 57.61 179.43 41.63 176.51 41.63 176.51 48.29 169.78 48.29 169.78 41.63 166.85 41.63 166.85 57.61 169.78 57.61 169.78 50.84 176.51 50.84 176.51 57.61"/>
      <path d="M186.97,41.63l-5.76,15.98h3.06l1.33-3.78h6.32l1.33,3.78h3.06l-5.76-15.98h-3.58ZM186.45,51.33l2.32-6.75,2.29,6.75h-4.61Z"/>
      <rect x="197.77" y="41.63" width="2.92" height="15.98"/>
      <path d="M221.57,55.12c.52-.91.79-1.98.79-3.23v-10.28h-2.92v10.28c0,1.12-.3,2-.91,2.61-.61.62-1.47.92-2.58.92s-1.97-.31-2.56-.92c-.6-.61-.9-1.49-.9-2.61v-10.28h-2.93v10.28c0,1.25.26,2.32.78,3.23.52.91,1.26,1.61,2.22,2.1.96.49,2.09.74,3.4.74s2.44-.25,3.4-.74c.96-.49,1.7-1.2,2.23-2.1Z"/>
      <polygon points="236.04 53.65 229.15 41.63 225.73 41.63 225.73 57.61 228.66 57.61 228.66 45.93 235.45 57.61 238.96 57.61 238.96 41.63 236.04 41.63 236.04 53.65"/>
      <rect x="241.98" y="41.63" width="2.93" height="15.98"/>
      <polygon points="258.38 41.63 253.92 54.35 249.45 41.63 246.36 41.63 252.15 57.61 255.66 57.61 261.46 41.63 258.38 41.63"/>
      <polygon points="273.84 55.07 265.83 55.07 265.83 50.86 273.39 50.86 273.39 48.34 265.83 48.34 265.83 44.18 273.66 44.18 273.66 41.63 262.9 41.63 262.9 57.61 273.84 57.61 273.84 55.07"/>
      <path d="M284.95,52.03c.36.3.56.77.61,1.4l.34,4.19h2.97l-.4-4.61c-.08-.96-.39-1.67-.96-2.14-.4-.33-.93-.54-1.58-.64.37-.11.73-.25,1.06-.47.53-.34.96-.8,1.27-1.37.31-.57.47-1.22.47-1.96,0-.97-.23-1.82-.7-2.54-.47-.72-1.12-1.27-1.96-1.67-.84-.39-1.84-.58-2.99-.58h-6.68v15.98h2.93v-6.03h3.82c.84,0,1.44.15,1.8.45ZM279.33,49.01v-4.84h3.44c.96,0,1.69.21,2.19.63.5.42.75,1.02.75,1.8s-.25,1.36-.74,1.78c-.5.42-1.19.63-2.07.63h-3.58Z"/>
      <path d="M297.37,57.97c1.21,0,2.27-.19,3.17-.57.9-.38,1.6-.93,2.09-1.64.5-.71.74-1.56.74-2.53,0-.79-.18-1.5-.54-2.11-.36-.62-.96-1.16-1.8-1.62-.84-.46-1.97-.85-3.4-1.15-.95-.23-1.68-.44-2.21-.64-.53-.2-.89-.45-1.09-.73-.2-.28-.3-.64-.3-1.08,0-.63.24-1.14.73-1.52.49-.38,1.15-.57,1.99-.57.68,0,1.25.12,1.72.37.47.25.85.59,1.12,1.02.28.44.45.95.53,1.53l2.95-.14c-.12-1.03-.44-1.95-.94-2.74-.51-.79-1.21-1.42-2.09-1.88-.89-.46-1.97-.69-3.24-.69-1.2,0-2.23.2-3.08.6s-1.52.95-1.98,1.67c-.47.71-.7,1.53-.7,2.46,0,.87.18,1.59.54,2.17.36.58.94,1.06,1.73,1.44.79.38,1.85.72,3.17,1.02,1.09.26,1.92.51,2.48.78.55.26.93.55,1.12.88.19.32.29.69.29,1.09,0,.45-.12.83-.35,1.14-.23.31-.57.54-1.01.7-.44.16-.98.24-1.61.24-.74,0-1.36-.12-1.88-.37-.52-.25-.93-.61-1.24-1.09-.31-.48-.51-1.06-.6-1.75l-2.97.18c.09,1.11.41,2.08.96,2.91.55.83,1.3,1.48,2.26,1.95.96.46,2.1.7,3.42.7Z"/>
      <rect x="306.35" y="41.63" width="2.93" height="15.98"/>
      <polygon points="310.38 44.18 315.24 44.18 315.24 57.61 318.16 57.61 318.16 44.18 323 44.18 323 41.63 310.38 41.63 310.38 44.18"/>
      <polygon points="330.15 48.43 326.37 41.63 323.09 41.63 328.67 51.31 328.67 57.61 331.62 57.61 331.62 51.31 337.2 41.63 333.91 41.63 330.15 48.43"/>
      <path d="M355.09,42.29c-1.13-.67-2.5-1.01-4.11-1.01s-2.95.34-4.08,1.01c-1.13.68-2,1.64-2.61,2.89-.61,1.25-.91,2.74-.91,4.47s.3,3.21.91,4.45c.61,1.25,1.48,2.2,2.62,2.87,1.14.67,2.5,1,4.07,1s2.97-.33,4.11-1c1.13-.67,2-1.62,2.61-2.87.61-1.24.91-2.73.91-4.45s-.3-3.21-.91-4.47c-.61-1.25-1.48-2.22-2.61-2.89ZM355.05,52.76c-.37.86-.89,1.52-1.57,1.98-.68.46-1.51.69-2.49.69s-1.76-.23-2.45-.69c-.69-.46-1.22-1.12-1.59-1.98-.37-.86-.55-1.9-.55-3.12s.18-2.26.55-3.13c.37-.87.9-1.54,1.59-2,.69-.46,1.51-.7,2.47-.7s1.78.23,2.46.7c.68.47,1.21,1.13,1.57,2,.37.87.55,1.91.55,3.13s-.18,2.25-.55,3.12Z"/>
      <polygon points="372.05 44.18 372.05 41.63 361.36 41.63 361.36 57.61 364.29 57.61 364.29 51.06 371.64 51.06 371.64 48.54 364.29 48.54 364.29 44.18 372.05 44.18"/>
      <polygon points="91.51 73.86 99.07 73.86 99.07 71.34 91.51 71.34 91.51 67.18 99.34 67.18 99.34 64.64 88.58 64.64 88.58 80.61 99.52 80.61 99.52 78.07 91.51 78.07 91.51 73.86"/>
      <polygon points="112.34 76.65 105.46 64.64 102.04 64.64 102.04 80.61 104.96 80.61 104.96 68.93 111.76 80.61 115.27 80.61 115.27 64.64 112.34 64.64 112.34 76.65"/>
      <path d="M124.94,74.65h3.94c-.03.71-.21,1.35-.54,1.92-.33.58-.78,1.03-1.35,1.36-.57.33-1.25.5-2.05.5-1.02,0-1.86-.25-2.53-.75-.67-.5-1.16-1.19-1.47-2.06-.31-.87-.47-1.86-.47-2.97s.16-2.06.48-2.94c.32-.88.81-1.58,1.46-2.1.65-.52,1.49-.79,2.51-.79,1.15,0,2.02.28,2.6.84.58.56.95,1.32,1.11,2.26l3.06-.16c-.23-1.08-.62-2.03-1.17-2.86-.56-.82-1.29-1.47-2.22-1.94-.92-.46-2.06-.7-3.41-.7-1.56,0-2.9.36-4,1.09-1.11.73-1.96,1.72-2.55,2.98-.59,1.26-.89,2.69-.89,4.3s.29,3.07.87,4.32c.58,1.25,1.41,2.22,2.51,2.94,1.09.71,2.4,1.07,3.91,1.07.87,0,1.68-.15,2.42-.46.74-.31,1.36-.73,1.87-1.28.29-.32.52-.67.7-1.04l.12,2.43h1.89v-8.24h-6.79v2.27Z"/>
      <rect x="134.39" y="64.64" width="2.93" height="15.98"/>
      <polygon points="150.64 76.65 143.75 64.64 140.33 64.64 140.33 80.61 143.26 80.61 143.26 68.93 150.05 80.61 153.56 80.61 153.56 64.64 150.64 64.64 150.64 76.65"/>
      <polygon points="159.5 73.86 167.06 73.86 167.06 71.34 159.5 71.34 159.5 67.18 167.33 67.18 167.33 64.64 156.58 64.64 156.58 80.61 167.51 80.61 167.51 78.07 159.5 78.07 159.5 73.86"/>
      <polygon points="173 73.86 180.56 73.86 180.56 71.34 173 71.34 173 67.18 180.83 67.18 180.83 64.64 170.08 64.64 170.08 80.61 181.01 80.61 181.01 78.07 173 78.07 173 73.86"/>
      <path d="M194.68,73.86c-.4-.33-.93-.54-1.58-.64.37-.11.73-.25,1.06-.47.53-.34.96-.8,1.27-1.37.31-.57.47-1.22.47-1.96,0-.97-.23-1.82-.7-2.54-.47-.72-1.12-1.27-1.96-1.67-.84-.39-1.84-.58-2.99-.58h-6.68v15.98h2.92v-6.03h3.83c.84,0,1.44.15,1.8.45.36.3.56.77.61,1.4l.34,4.19h2.97l-.41-4.61c-.08-.96-.39-1.67-.96-2.14ZM192.15,71.39c-.5.42-1.19.63-2.07.63h-3.58v-4.84h3.44c.96,0,1.69.21,2.19.63.5.42.75,1.02.75,1.8s-.25,1.36-.74,1.78Z"/>
      <rect x="198.86" y="64.64" width="2.92" height="15.98"/>
      <polygon points="215.1 76.65 208.21 64.64 204.8 64.64 204.8 80.61 207.72 80.61 207.72 68.93 214.52 80.61 218.02 80.61 218.02 64.64 215.1 64.64 215.1 76.65"/>
      <path d="M227.7,74.65h3.94c-.03.71-.21,1.35-.54,1.92-.33.58-.78,1.03-1.35,1.36-.57.33-1.25.5-2.05.5-1.02,0-1.86-.25-2.53-.75-.67-.5-1.16-1.19-1.47-2.06-.32-.87-.47-1.86-.47-2.97s.16-2.06.48-2.94c.32-.88.81-1.58,1.46-2.1.65-.52,1.49-.79,2.51-.79,1.15,0,2.02.28,2.6.84s.95,1.32,1.11,2.26l3.06-.16c-.22-1.08-.62-2.03-1.17-2.86-.56-.82-1.29-1.47-2.22-1.94-.92-.46-2.06-.7-3.41-.7-1.56,0-2.9.36-4.01,1.09-1.11.73-1.96,1.72-2.55,2.98-.59,1.26-.89,2.69-.89,4.3s.29,3.07.87,4.32c.58,1.25,1.41,2.22,2.51,2.94,1.09.71,2.4,1.07,3.92,1.07.87,0,1.68-.15,2.42-.46s1.36-.73,1.87-1.28c.29-.32.52-.67.7-1.04l.12,2.43h1.89v-8.24h-6.79v2.27Z"/>
      <path d="M252.52,72.49c-.84-.46-1.97-.85-3.4-1.15-.95-.23-1.68-.44-2.21-.64-.53-.2-.89-.45-1.09-.73-.2-.28-.3-.64-.3-1.08,0-.63.24-1.14.73-1.52.49-.38,1.15-.57,1.99-.57.68,0,1.25.12,1.72.37.47.25.85.59,1.12,1.02.28.44.45.95.53,1.53l2.95-.14c-.12-1.03-.44-1.95-.94-2.74-.51-.79-1.21-1.42-2.09-1.88-.89-.46-1.97-.69-3.24-.69-1.2,0-2.23.2-3.08.6s-1.52.95-1.98,1.67c-.47.71-.7,1.53-.7,2.46,0,.87.18,1.59.54,2.17.36.58.94,1.06,1.73,1.44.79.38,1.85.72,3.17,1.02,1.09.26,1.92.51,2.48.78.55.26.93.55,1.12.88.19.32.29.69.29,1.09,0,.45-.12.83-.35,1.14-.23.31-.57.54-1.01.7-.44.16-.98.24-1.61.24-.74,0-1.36-.12-1.88-.37-.52-.25-.93-.61-1.24-1.09-.31-.48-.51-1.06-.6-1.75l-2.97.18c.09,1.11.41,2.08.96,2.91.55.83,1.3,1.48,2.26,1.95.96.46,2.1.7,3.42.7,1.21,0,2.27-.19,3.17-.57.9-.38,1.6-.93,2.09-1.64.5-.71.74-1.56.74-2.53,0-.79-.18-1.5-.54-2.11-.36-.62-.96-1.16-1.8-1.62Z"/>
      <path d="M266.95,77.45c-.65.65-1.57.98-2.76.98-.87,0-1.64-.23-2.3-.7-.66-.46-1.17-1.13-1.54-1.99-.37-.86-.55-1.89-.55-3.09s.18-2.21.54-3.08c.36-.87.87-1.54,1.53-2.03.66-.48,1.44-.72,2.34-.72,1.11,0,1.99.3,2.63.9.64.6,1.06,1.43,1.26,2.48l3.06-.16c-.35-1.81-1.08-3.23-2.21-4.24-1.12-1.01-2.71-1.52-4.75-1.52-1.5,0-2.81.34-3.92,1.02-1.11.68-1.97,1.65-2.59,2.9-.62,1.25-.92,2.73-.92,4.44s.31,3.23.95,4.47c.63,1.24,1.5,2.19,2.61,2.86,1.11.67,2.39,1,3.85,1,1.33,0,2.49-.24,3.48-.73.98-.49,1.77-1.18,2.37-2.09.6-.91,1-1.98,1.22-3.23l-3.06-.16c-.18,1.14-.6,2.04-1.25,2.69Z"/>
      <rect x="273.53" y="64.64" width="2.93" height="15.98"/>
      <polygon points="282.4 73.86 289.96 73.86 289.96 71.34 282.4 71.34 282.4 67.18 290.23 67.18 290.23 64.64 279.47 64.64 279.47 80.61 290.41 80.61 290.41 78.07 282.4 78.07 282.4 73.86"/>
      <polygon points="303.23 76.65 296.35 64.64 292.93 64.64 292.93 80.61 295.85 80.61 295.85 68.93 302.65 80.61 306.16 80.61 306.16 64.64 303.23 64.64 303.23 76.65"/>
      <path d="M318.5,77.45c-.65.65-1.57.98-2.76.98-.87,0-1.64-.23-2.3-.7-.66-.46-1.17-1.13-1.54-1.99-.37-.86-.55-1.89-.55-3.09s.18-2.21.54-3.08c.36-.87.87-1.54,1.53-2.03.66-.48,1.44-.72,2.34-.72,1.11,0,1.99.3,2.63.9.64.6,1.06,1.43,1.26,2.48l3.06-.16c-.35-1.81-1.08-3.23-2.21-4.24-1.12-1.01-2.71-1.52-4.75-1.52-1.5,0-2.81.34-3.92,1.02-1.11.68-1.97,1.65-2.59,2.9-.62,1.25-.92,2.73-.92,4.44s.31,3.23.95,4.47c.63,1.24,1.5,2.19,2.61,2.86,1.11.67,2.39,1,3.85,1,1.33,0,2.49-.24,3.48-.73.98-.49,1.77-1.18,2.37-2.09.6-.91,1-1.98,1.22-3.23l-3.06-.16c-.18,1.14-.6,2.04-1.25,2.69Z"/>
      <polygon points="328.01 73.86 335.56 73.86 335.56 71.34 328.01 71.34 328.01 67.18 335.83 67.18 335.83 64.64 325.08 64.64 325.08 80.61 336.02 80.61 336.02 78.07 328.01 78.07 328.01 73.86"/>
      <rect x="35.43" y="2.66" width="7.09" height="33.66"/>
      <rect x="60.24" y="2.66" width="7.09" height="33.66"/>
      <polygon points="0 9.74 0 9.74 31.89 9.74 31.89 2.66 0 2.66 0 9.74"/>
      <polygon points="31.89 38.09 31.89 29.76 0 9.74 0 18.07 31.89 38.09"/>
      <rect x="35.43" y="73.52" width="31.89" height="7.09"/>
      <polygon points="35.43 45.18 35.43 45.18 67.32 45.18 67.32 38.09 35.43 38.09 35.43 45.18"/>
      <polygon points="67.32 73.52 67.32 65.2 35.43 45.18 35.43 53.5 67.32 73.52"/>
      <rect y="38.09" width="31.89" height="7.09"/>
      <polygon points="0 52.62 0 60.59 31.89 80.61 31.89 72.64 0 52.62 31.89 62.01 31.89 54.57 0 45.18 0 52.62 0 52.62"/>
    </g>
  </g>
</svg>