<?xml version="1.0" encoding="UTF-8"?>
<svg id="_图层_2" data-name="图层 2" xmlns="http://www.w3.org/2000/svg" viewBox="0 0 67.32 77.95">
  <g id="logo">
    <g>
      <rect x="35.43" width="7.09" height="33.66"/>
      <rect x="60.24" width="7.09" height="33.66"/>
      <polygon points="0 7.09 0 7.09 31.89 7.09 31.89 0 0 0 0 7.09"/>
      <polygon points="31.89 35.43 31.89 27.11 0 7.09 0 15.41 31.89 35.43"/>
      <rect x="35.43" y="70.87" width="31.89" height="7.09"/>
      <polygon points="35.43 42.52 35.43 42.52 67.32 42.52 67.32 35.43 35.43 35.43 35.43 42.52"/>
      <polygon points="67.32 70.87 67.32 62.54 35.43 42.52 35.43 50.85 67.32 70.87"/>
      <rect y="35.43" width="31.89" height="7.09"/>
      <polygon points="0 49.96 0 57.93 31.89 77.95 31.89 69.98 0 49.96 31.89 59.35 31.89 51.91 0 42.52 0 49.96 0 49.96"/>
    </g>
  </g>
</svg>